<?xml version="1.0" standalone="no"?>
<!DOCTYPE svg PUBLIC "-//W3C//DTD SVG 20010904//EN"
 "http://www.w3.org/TR/2001/REC-SVG-20010904/DTD/svg10.dtd">
<svg version="1.0" xmlns="http://www.w3.org/2000/svg"
 width="500.000000pt" height="500.000000pt" viewBox="0 0 500.000000 500.000000"
 preserveAspectRatio="xMidYMid meet">

<g transform="translate(0.000000,500.000000) scale(0.100000,-0.100000)"
fill="#000000" stroke="none">
<path d="M930 3278 c-32 -16 -52 -36 -70 -68 -23 -42 -25 -57 -28 -202 -5
-177 6 -245 45 -296 37 -49 80 -63 217 -70 l121 -7 3 -129 c2 -97 -1 -131 -10
-138 -7 -4 -41 -8 -75 -8 -75 0 -83 10 -83 99 l0 61 -110 0 -110 0 0 -70 c0
-109 17 -169 59 -211 45 -45 102 -59 245 -59 186 0 251 24 290 109 19 42 21
63 21 236 0 175 -2 193 -21 230 -45 83 -93 104 -246 105 -130 0 -128 -2 -128
132 0 122 5 130 90 126 l65 -3 3 -57 3 -58 111 0 110 0 -4 93 c-5 112 -26 154
-92 186 -37 19 -61 21 -202 21 -146 0 -164 -2 -204 -22z"/>
<path d="M1700 3278 c-32 -16 -52 -36 -70 -68 l-25 -45 -3 -388 c-4 -447 0
-481 57 -538 50 -51 114 -63 301 -57 159 5 187 13 233 68 15 17 31 47 37 68
13 50 13 804 0 854 -14 48 -55 97 -97 114 -23 10 -83 14 -211 14 -164 0 -181
-2 -222 -22z m294 -144 c14 -13 16 -63 16 -389 0 -326 -2 -376 -16 -389 -19
-19 -124 -22 -142 -4 -9 9 -12 110 -12 395 0 434 -7 402 87 403 34 0 57 -5 67
-16z"/>
<path d="M3700 3278 c-35 -18 -51 -35 -70 -73 l-25 -50 -3 -477 -3 -478 121 0
120 0 0 458 c0 343 3 461 12 470 16 16 110 16 126 0 9 -9 12 -127 12 -470 l0
-458 120 0 121 0 -3 478 -3 477 -25 50 c-19 38 -35 55 -70 73 -41 20 -58 22
-215 22 -157 0 -174 -2 -215 -22z"/>
<path d="M2376 3253 c3 -21 43 -265 88 -543 l82 -505 131 -3 c119 -2 132 -1
137 15 2 10 26 149 51 308 26 160 50 298 54 308 4 11 29 -114 60 -307 l54
-326 133 0 c74 0 134 3 134 6 0 3 38 242 85 530 47 288 85 531 85 539 0 12
-19 15 -110 15 -60 0 -110 -1 -111 -2 0 -2 -22 -185 -48 -408 -33 -281 -50
-394 -55 -370 -3 19 -31 197 -61 395 -31 198 -57 366 -60 373 -3 8 -33 12
-105 12 -55 0 -100 -1 -100 -2 -1 -2 -29 -185 -64 -408 -52 -332 -64 -397 -70
-360 -9 59 -86 737 -86 756 0 11 -22 14 -115 14 l-115 0 6 -37z"/>
<path d="M1370 1835 l0 -185 1185 0 1185 0 0 185 0 185 -1185 0 -1185 0 0
-185z m430 55 c47 -47 10 -110 -65 -110 l-45 0 0 65 0 65 45 0 c32 0 51 -6 65
-20z m210 10 c0 -5 -16 -10 -35 -10 -24 0 -35 -5 -35 -15 0 -10 10 -15 30 -15
17 0 30 -4 30 -10 0 -5 -13 -10 -30 -10 -23 0 -30 -4 -30 -20 0 -16 7 -20 35
-20 19 0 35 -4 35 -10 0 -5 -22 -10 -50 -10 l-50 0 0 65 0 65 50 0 c28 0 50
-4 50 -10z m128 -37 l21 -48 21 48 c11 26 27 47 35 47 19 0 -36 -124 -56 -128
-10 -2 -24 18 -40 55 -13 32 -25 61 -27 65 -2 4 3 8 11 8 8 0 24 -21 35 -47z
m272 37 c0 -5 -16 -10 -35 -10 -24 0 -35 -5 -35 -15 0 -10 10 -15 30 -15 17 0
30 -4 30 -10 0 -5 -13 -10 -30 -10 -23 0 -30 -4 -30 -20 0 -16 7 -20 35 -20
19 0 35 -4 35 -10 0 -5 -22 -10 -50 -10 l-50 0 0 65 0 65 50 0 c28 0 50 -4 50
-10z m120 -45 l0 -55 35 0 c19 0 35 -4 35 -10 0 -5 -22 -10 -50 -10 l-50 0 0
65 c0 51 3 65 15 65 12 0 15 -13 15 -55z m264 40 c43 -44 18 -108 -46 -113
-60 -5 -94 63 -53 108 22 24 77 27 99 5z m214 3 c7 -7 12 -21 12 -33 0 -29
-19 -45 -52 -45 -21 0 -28 -5 -28 -20 0 -11 -7 -20 -15 -20 -12 0 -15 14 -15
65 l0 65 43 0 c24 0 48 -5 55 -12z m202 2 c0 -5 -16 -10 -35 -10 -24 0 -35 -5
-35 -15 0 -10 10 -15 30 -15 17 0 30 -4 30 -10 0 -5 -13 -10 -30 -10 -23 0
-30 -4 -30 -20 0 -16 7 -20 35 -20 19 0 35 -4 35 -10 0 -5 -22 -10 -50 -10
l-50 0 0 65 0 65 50 0 c28 0 50 -4 50 -10z m198 -2 c15 -15 16 -50 1 -65 -8
-8 -8 -17 0 -32 10 -17 9 -21 -3 -21 -9 0 -20 9 -26 20 -6 11 -17 20 -25 20
-8 0 -15 -9 -15 -20 0 -11 -7 -20 -15 -20 -12 0 -15 14 -15 65 l0 65 43 0 c24
0 48 -5 55 -12z"/>
<path d="M1720 1845 c0 -34 4 -45 16 -45 28 0 54 20 54 43 0 29 -18 47 -47 47
-21 0 -23 -5 -23 -45z"/>
<path d="M2716 1874 c-9 -8 -16 -22 -16 -29 0 -7 7 -21 16 -29 30 -30 74 -13
74 29 0 42 -44 59 -74 29z"/>
<path d="M2940 1865 c0 -20 5 -25 24 -25 27 0 40 22 23 39 -21 21 -47 13 -47
-14z"/>
<path d="M3340 1865 c0 -22 4 -26 23 -23 14 2 22 10 22 23 0 13 -8 21 -22 23
-19 3 -23 -1 -23 -23z"/>
</g>
</svg>
